# xmcd
#
# Track frame offsets:
#  182
#  4640
#  41047
#  66422
#  109900
#  143725
#  163932
#
# Disc length: 2703 seconds
#
# Revision: 0
# Processed by: cddbd v1.5.1PL2 Copyright (c) Steve Scherf et al.
# Submitted via: Collectorz.com_Music_Collector 6.11
#
DISCID=5f0a8d07
DTITLE=Albert King - Wednesday Night In San Francisco
DYEAR=1990
DGENRE=Blues
TTITLE0=Herbie Hancock - Watermelon Man
TTITLE1=Why You So Mean To Me
TTITLE2=King - I Get Evil
TTITLE3=King - Got To Be Some Changes Made
TTITLE4=Porter - King - Personal Manager
TTITLE5=Jones - Bell - Born Under A Bad Sign
TTITLE6=King - Don't Throw Your Love On Me So Strong
EXTD=
EXTT0=
EXTT1=
EXTT2=
EXTT3=
EXTT4=
EXTT5=
EXTT6=
PLAYORDER=
